# xmcd
#
# Track frame offsets: 
#        150
#        18300
#        33225
#        51450
#        65175
#        77175
#        93825
#        106650
#        123450
#        137550
#        156150
#        170325
#        183825
#        196125
#        211725
#        233175
#        249450
#        273075
#        297375
#
# Disc length: 4167 seconds
#
# Revision: 0
# Processed by: cddbd v1.5.1PL2 Copyright (c) Steve Scherf et al.
# Submitted via: ExactAudioCopy v0.95a5
#
DISCID=03104513
DTITLE=理查德 - 理查德
DYEAR=1997
DGENRE=Acid Jazz
TTITLE0=新鸳鸯蝴蝶梦
TTITLE1=太阳红
TTITLE2=跟往事干杯
TTITLE3=何日君再来
TTITLE4=给爱德琳的诗
TTITLE5=艾莲娜
TTITLE6=儿时的回忆
TTITLE7=我只在乎你
TTITLE8=第6感生死恋
TTITLE9=一切终为你
TTITLE10=坠入情网
TTITLE11=给母亲的信
TTITLE12=爱的婚礼
TTITLE13=唱采
TTITLE14=洋娃娃之家
TTITLE15=驿站
TTITLE16=夕阳西沉
TTITLE17=潺潺流水
TTITLE18=翼下之风
EXTD=
EXTT0=
EXTT1=
EXTT2=
EXTT3=
EXTT4=
EXTT5=
EXTT6=
EXTT7=
EXTT8=
EXTT9=
EXTT10=
EXTT11=
EXTT12=
EXTT13=
EXTT14=
EXTT15=
EXTT16=
EXTT17=
EXTT18=
PLAYORDER=
